<?xml version="1.0" encoding="utf-8"?>
<!-- Generator: Adobe Illustrator 18.0.0, SVG Export Plug-In . SVG Version: 6.00 Build 0)  -->
<!DOCTYPE svg PUBLIC "-//W3C//DTD SVG 1.1//EN" "http://www.w3.org/Graphics/SVG/1.1/DTD/svg11.dtd">
<svg version="1.1" xmlns="http://www.w3.org/2000/svg" xmlns:xlink="http://www.w3.org/1999/xlink" x="0px" y="0px"
	 viewBox="0 0 16 16" enable-background="new 0 0 16 16" xml:space="preserve">
<g id="Layer_1">
	<g>
		<path d="M0.3,8c0-4.2,3.4-7.7,7.7-7.7s7.7,3.4,7.7,7.7s-3.4,7.7-7.7,7.7S0.3,12.2,0.3,8z M8,14.5c3.6,0,6.5-2.9,6.5-6.5
			S11.6,1.5,8,1.5S1.5,4.4,1.5,8S4.4,14.5,8,14.5z"/>
	</g>
</g>
<g id="Layer_3">
	<g>
		<defs>
			<circle id="SVGID_1_" cx="8" cy="8" r="5.5"/>
		</defs>
		<clipPath id="SVGID_2_">
			<use xlink:href="#SVGID_1_"  overflow="visible"/>
		</clipPath>
		<path clip-path="url(#SVGID_2_)" d="M1.2,16.7V8.1h0c0.3-0.2,0.6-0.4,0.8-0.5S2.7,7.3,3,7.3s0.6,0.1,0.8,0.2S4.4,7.8,4.6,8
			c0.3,0.2,0.6,0.4,0.8,0.5C5.8,8.7,6,8.8,6.3,8.8c0.3,0,0.6-0.1,0.8-0.2C7.5,8.4,7.7,8.2,8,8c0.3-0.2,0.6-0.4,0.8-0.5
			s0.6-0.2,0.8-0.2c0.3,0,0.6,0.1,0.8,0.2s0.6,0.3,0.8,0.5c0.3,0.2,0.6,0.4,0.8,0.5c0.3,0.1,0.6,0.2,0.8,0.2c0.3,0,0.5-0.1,0.8-0.2
			c0.3-0.1,0.6-0.3,0.8-0.5v8.7h0L1.2,16.7"/>
	</g>
</g>
</svg>
